<svg width="547" height="165" viewBox="0 0 547 165" fill="none" xmlns="http://www.w3.org/2000/svg">
<path d="M462.667 40.6666V81.3333H473.334H484V40.6666V-5.34058e-05H473.334H462.667V40.6666Z" fill="#EB332C"/>
<path d="M187.333 25.8668C166.667 30.9335 153.733 44.1335 152.4 62.0001C151.067 77.7335 156.933 88.5335 170.4 95.7335C175.067 98.2668 186.533 102.133 196.933 104.8C218.933 110.533 224.4 113.067 226.667 118.667C234.933 138.667 192.133 143.733 164.267 126.133L159.067 122.933L154.267 134.8L149.467 146.8L153.733 149.467C159.867 153.2 171.333 157.333 182 159.6C194 162.133 219.067 161.333 228.667 158C247.867 151.333 258.667 137.6 258.667 119.867C258.667 109.067 256.667 103.6 250.667 97.6001C244.133 90.9335 235.733 87.3335 213.467 81.4668C190.667 75.3335 189.333 74.8001 185.467 69.8668C180.267 63.3335 183.2 54.9335 192 51.4668C202.667 47.2001 225.867 49.4668 239.2 56.0001C242.133 57.4668 244.667 58.4001 244.8 58.2668C245.467 57.4668 252 36.4001 252 35.2001C252 33.0668 240.4 28.2668 229.333 26.0001C218.133 23.6001 196.8 23.6001 187.333 25.8668Z" fill="black"/>
<path d="M320.8 26.1332C297.333 31.7332 277.2 51.1999 271.2 73.8666C268.4 84.1332 268.8 103.333 272 113.6C278.8 135.867 297.466 153.2 320.933 159.333C337.2 163.6 361.6 160.933 375.066 153.6C382 149.867 393.866 139.333 393.066 137.6C392.8 137.067 388.666 132.8 383.733 128.133L374.8 119.6L370 123.867C360.8 131.867 355.2 133.867 342 133.867C332.266 133.867 328.8 133.333 323.733 130.8C315.2 126.667 308.266 119.6 304.133 110.8C301.2 104.533 300.666 101.467 300.666 91.9999C300.666 73.4666 307.6 61.9999 323.333 54.5332C338.133 47.4666 356.666 49.7332 368.666 60.2666L374.666 65.5999L384.8 56.6666L394.8 47.5999L389.2 41.8666C382.533 35.0666 371.333 28.7999 360.666 25.9999C350.933 23.4666 331.466 23.5999 320.8 26.1332Z" fill="black"/>
<path d="M440.533 27.4667C414.667 41.2 400.667 64.2667 400.933 92.6667C401.067 106.8 404.4 118.533 410.933 128.8C423.333 148.267 438.533 158.667 460.8 163.333C501.733 171.867 542.267 141.2 546.133 98.6667C548.8 71.0667 532.667 41.2 508.533 28.2667C504 26 499.867 24 499.467 24C499.067 24 498.667 29.7333 498.667 36.6667C498.667 43.6 499.2 49.3333 499.867 49.3333C503.2 49.3333 514.933 62.2667 518.933 70.4C522.933 78.5333 523.333 80.2667 523.333 92C523.333 102.933 522.8 105.733 519.733 112.267C517.733 116.533 513.2 122.933 509.6 126.533C479.333 156.8 430.933 140.8 423.6 98.1333C420.8 82 428.933 62.4 442.267 52.6667L447.867 48.6667V36.2667C448 29.6 447.733 24 447.467 24C447.333 24 444.133 25.6 440.533 27.4667Z" fill="#EB332C"/>
<path d="M56.2667 27.5999C55.6 28.9332 52.8 35.0665 50.2667 41.3332C47.7333 47.5999 35.3333 76.2665 22.8 105.067C10.2667 133.733 0 157.6 0 158C0 158.4 7.06667 158.667 15.7333 158.667H31.3333L36.6667 144.933L42.1333 131.333H72.5333H103.067L108.533 144.933L114 158.667H130.533C143.067 158.667 146.8 158.267 146.267 156.933C145.867 156.133 134.4 130.133 120.667 99.3332C106.933 68.5332 94.2667 39.5999 92.4 34.9332L89.0667 26.6665H76.1333C69.0667 26.6665 62 26.2665 60.4 25.8665C58.4 25.3332 57.2 25.8665 56.2667 27.5999ZM82.1333 80.6665C86.9333 93.1999 91.3333 104.133 91.6 104.933C92.1333 106.267 87.8667 106.667 72.8 106.667C62.1333 106.667 53.3333 106.267 53.3333 105.733C53.3333 105.333 57.2 95.1999 61.7333 83.4665C66.4 71.5999 70.6667 60.7999 71.2 59.4665C71.6 58.1332 72.2667 57.1999 72.6667 57.4665C72.9333 57.8665 77.2 68.2665 82.1333 80.6665Z" fill="black"/>
</svg>
